<svg xmlns="http://www.w3.org/2000/svg" viewBox="0 0 80 40">
<g id="SvgjsG1007" featurekey="symbolFeature-0" transform="matrix(0.8587981908268331,0,0,0.8587981908268331,-0.6011421895004763,-23.130880312999473)" fill="#111111"><path xmlns="http://www.w3.org/2000/svg" fill-rule="evenodd" clip-rule="evenodd" fill="#111111" d="M82.84,39.78c0.394,0.739,0.645,1.619,0.754,2.638  c0.049,0.448,0.074,1.252,0.074,2.41c0,0.261-0.03,0.591-0.091,0.991c-0.019,0.461-0.09,1.122-0.211,1.983  c-0.084,0.588-0.142,1.036-0.173,1.346c0.024,0.333,0.073,0.58,0.146,0.737c0.079,0.176,0.373,0.552,0.882,1.128  c0.268,0.285,0.749,0.497,1.446,0.636c0.824,0.158,1.304,0.273,1.438,0.346c0.436,0.226,0.806,0.558,1.109,1.001  c0.17,0.449,0.284,0.831,0.347,1.146c0.005,0.019,0.038,0.276,0.099,0.773c0.098,0.576,0.221,1.107,0.372,1.592  c0.079,0.248,0.169,0.479,0.265,0.691c-0.072,0.019-0.148,0.027-0.228,0.027c-1.363,0-2.422-0.561-3.175-1.684  c-0.17-0.26-0.397-0.684-0.682-1.272c-0.065-0.128-0.124-0.239-0.173-0.336c-0.006-0.019-0.009-0.03-0.009-0.037  c-0.019-0.334-0.37-0.8-1.056-1.401c-0.818-0.715-1.261-1.127-1.328-1.236c-0.303-0.461-0.505-0.913-0.609-1.355  c-0.042-0.193-0.072-0.415-0.091-0.663c0-0.031,0-0.059,0-0.083c-0.005-0.085-0.012-0.17-0.017-0.254  c-0.007-0.092-0.011-0.18-0.011-0.265c0-0.363,0.049-0.918,0.146-1.665c0.036-0.297,0.066-0.561,0.091-0.791  c0.066-0.46,0.118-0.942,0.153-1.445c-0.061-0.801-0.215-1.59-0.463-2.366c-0.612-1.916-1.652-2.874-3.121-2.874  c-0.272,0-0.533,0.055-0.78,0.164c0.163,1.485,0.245,2.304,0.245,2.456c0,0.618-0.177,1.573-0.528,2.865  c-0.352,1.279-0.527,2.235-0.527,2.865c0,1.164,0.467,2.341,1.401,3.529c0.563,0.704,0.889,1.124,0.973,1.265  c0.291,0.448,0.438,0.879,0.438,1.292c0,0.411-0.503,1.7-1.51,3.865c-0.51,1.098-1.063,2.244-1.656,3.438  c-0.37,0.789-0.57,1.649-0.601,2.583c-0.018,0.522-0.012,1.189,0.018,2.002c-0.023,0.618-0.218,1.052-0.581,1.301  c-0.438,0.304-1.24,0.455-2.41,0.455c-0.758,0-1.507-0.062-2.247-0.182c-0.94-0.159-1.41-0.364-1.41-0.619  c0-0.563,0.279-1.389,0.837-2.475c0.321-0.618,0.934-1.676,1.838-3.174c0.715-1.188,1.382-2.38,2.001-3.575  c0.006-0.072,0.019-0.146,0.036-0.219c0.012-0.103,0.018-0.202,0.018-0.299c0-0.449-0.212-0.855-0.636-1.22  c-0.243-0.206-0.725-0.506-1.446-0.9c-0.298-0.157-0.561-0.306-0.791-0.445c-0.098,0.291-0.228,0.573-0.392,0.847  c-0.321,0.521-0.857,1.121-1.61,1.8c-0.903,0.771-1.582,1.38-2.037,1.829c-0.801,0.782-1.429,1.576-1.883,2.383  c-0.655,1.146-1.155,2.295-1.501,3.446c-0.182,0.607-0.373,1.316-0.573,2.129c-0.193,0.534-0.507,0.895-0.937,1.083  c-0.479,0.194-1.337,0.29-2.574,0.29h-1.792c-0.886-0.036-1.328-0.169-1.328-0.399c0-0.66,0.428-1.606,1.282-2.838  c0.588-0.843,1.529-2.007,2.82-3.493c1.067-1.219,1.843-2.116,2.329-2.692c0.042-0.049,0.081-0.094,0.118-0.137  c0.169-0.2,0.293-0.354,0.372-0.463c0.177-0.219,0.333-0.425,0.473-0.619c-0.254-1.995-1.264-3.29-3.028-3.884  c-0.982-0.328-2.599-0.491-4.848-0.491c-0.485,0-1.468,0.173-2.947,0.519c-1.39,0.351-2.102,0.497-2.139,0.437  c-0.703,0.242-1.238,0.421-1.609,0.536c-0.987,0.315-1.716,0.474-2.183,0.474c-0.558,0-1.162-0.094-1.811-0.281  c-0.648-0.189-1.134-0.283-1.455-0.283c-0.096,0-0.229,0.052-0.396,0.155c-1.695,2.634-3.184,4.828-4.466,6.585  c0.103,0.274,0.234,0.505,0.396,0.691c0.321,0.37,0.804,0.592,1.447,0.664c0.351,0.037,0.833,0.069,1.446,0.1  c0.442,0.098,0.663,0.373,0.663,0.828c0,0.4-0.163,1.371-0.491,2.911c-0.351,1.637-0.609,2.455-0.772,2.455  c-0.655,0-1.701-0.869-3.138-2.61c-0.75-0.902-1.326-1.647-1.728-2.237c-0.396,0.465-0.759,0.863-1.092,1.196  c-0.059,0.175-0.123,0.36-0.191,0.559c-0.315,0.916-0.631,1.525-0.946,1.828c-1.091,0.146-1.892,0.252-2.401,0.318  c-0.91,0.115-1.677,0.173-2.302,0.173c-0.606,0-0.909-0.175-0.909-0.527c0-0.145,0.761-1.233,2.283-3.265  c1.516-2.031,2.273-3.084,2.273-3.156c0-0.164-0.121-0.37-0.363-0.618c-0.024-0.024-0.289-0.264-0.792-0.719  c-0.77-0.698-1.155-1.316-1.155-1.855c0-0.4,0.197-0.822,0.591-1.265c0.218-0.237,0.652-0.622,1.301-1.156  c0.619-0.49,1.055-0.891,1.31-1.2c0.394-0.466,0.591-0.934,0.591-1.4c0-0.442-1.477-1.355-4.43-2.738  c-2.893-1.358-4.718-2.037-5.476-2.037c-0.449,0-0.822,0.213-1.119,0.637c-0.279,0.394-0.419,0.85-0.419,1.364  c0,0.23,0.07,0.649,0.209,1.255c0.14,0.619,0.209,1.067,0.209,1.347c0,0.643-0.376,1.285-1.128,1.928  c-0.758,0.655-1.553,0.982-2.383,0.982c-0.297,0-0.782-0.388-1.455-1.163c-0.376-0.389-0.88-0.914-1.51-1.574  c-1.613-1.686-2.638-2.684-3.074-2.992c-0.995-0.723-1.859-1.625-2.593-2.711c-0.491-0.734-0.815-1.388-0.973-1.965  c-0.467,0.206-0.931,0.388-1.392,0.546c-1.419,0.491-2.701,0.736-3.848,0.736c-1.109,0-2.238-0.569-3.383-1.71  c-1.013-1-1.628-1.952-1.847-2.855c0.606,0.455,1.355,0.897,2.247,1.328c1.171,0.563,2.116,0.846,2.838,0.846  c0.716,0,1.716-0.386,3.002-1.155c0.655-0.395,1.304-0.828,1.946-1.301v-0.064c-1.849,0.194-3.711-0.293-5.585-1.464  c-1.868-1.17-3.071-2.601-3.611-4.293c1.552,1.225,2.665,2.016,3.338,2.374c1.007,0.521,2.128,0.782,3.366,0.782  c0.716,0,1.683-0.094,2.901-0.282c0.764-0.115,3.984-1.713,9.66-4.793c0.582-0.322,1.191-0.655,1.828-1  c0.006-0.006,0.016-0.015,0.027-0.027c0.928-0.903,1.649-1.589,2.165-2.056c3.02-2.753,5.321-4.129,6.903-4.129  c0.958,0,1.998,0.254,3.12,0.764c0.673,0.309,1.75,0.873,3.229,1.691c1.456,0.758,2.853,1.322,4.193,1.692  c1.844,0.516,3.859,0.773,6.049,0.773c1.212,0,3.574-0.27,7.085-0.81c3.523-0.54,5.713-0.81,6.568-0.81  c3.279,0,6.356,0.746,9.232,2.238c1.952,1.001,3.559,2.199,4.821,3.593C79.482,36.515,81.754,37.754,82.84,39.78z"></path></g>
</svg>
